Normalized EMG Linear Envelopes
nRows=59
nColumns=17

endheader
time	        VM	        VL	        RF	       GRA	        TA	   ADDLONG	   SEMIMEM	      BFLH	        GM	        GL	       TFL	   GLUTMAX	   GLUTMED	      PIRI	    OBTINT	        QF	
2.045	  0.000000	  0.000000	  0.026452	  0.251157	  0.163587	  0.387847	  0.052375	  0.083435	  0.571023	  0.372755	  0.371393	  0.068964	  0.998600	  0.300397	  0.221459	  0.113087	
2.0455	  0.000000	  0.000000	  0.026215	  0.254173	  0.163857	  0.392712	  0.053185	  0.082217	  0.565660	  0.367297	  0.372848	  0.066422	  0.997538	  0.298876	  0.220992	  0.112549	
2.046	  0.000000	  0.000000	  0.026009	  0.257175	  0.164197	  0.397563	  0.054001	  0.081034	  0.560264	  0.361871	  0.374279	  0.063945	  0.996182	  0.297324	  0.220514	  0.112027	
2.0465	  0.000000	  0.000000	  0.025832	  0.260164	  0.164607	  0.402399	  0.054820	  0.079887	  0.554835	  0.356475	  0.375687	  0.061531	  0.994534	  0.295744	  0.220023	  0.111521	
2.047	  0.000000	  0.000000	  0.025686	  0.263136	  0.165090	  0.407220	  0.055644	  0.078775	  0.549375	  0.351111	  0.377070	  0.059181	  0.992597	  0.294135	  0.219519	  0.111031	
2.0475	  0.000000	  0.000000	  0.025570	  0.266092	  0.165647	  0.412024	  0.056472	  0.077696	  0.543884	  0.345779	  0.378427	  0.056893	  0.990378	  0.292498	  0.219001	  0.110554	
2.048	  0.000000	  0.000000	  0.025484	  0.269031	  0.166279	  0.416811	  0.057303	  0.076652	  0.538366	  0.340479	  0.379757	  0.054666	  0.987881	  0.290835	  0.218469	  0.110092	
2.0485	  0.000000	  0.000000	  0.025427	  0.271950	  0.166988	  0.421579	  0.058136	  0.075640	  0.532820	  0.335212	  0.381060	  0.052501	  0.985113	  0.289147	  0.217923	  0.109643	
2.049	  0.000000	  0.000000	  0.025401	  0.274850	  0.167774	  0.426328	  0.058972	  0.074662	  0.527250	  0.329979	  0.382334	  0.050396	  0.982081	  0.287434	  0.217361	  0.109206	
2.0495	  0.000000	  0.000000	  0.025404	  0.277729	  0.168641	  0.431056	  0.059811	  0.073715	  0.521657	  0.324779	  0.383579	  0.048351	  0.978791	  0.285698	  0.216785	  0.108781	
2.05	  0.000000	  0.000000	  0.025436	  0.280587	  0.169587	  0.435765	  0.060650	  0.072801	  0.516044	  0.319613	  0.384794	  0.046364	  0.975251	  0.283939	  0.216193	  0.108368	
2.0505	  0.000000	  0.000000	  0.025499	  0.283422	  0.170616	  0.440452	  0.061491	  0.071917	  0.510414	  0.314481	  0.385978	  0.044436	  0.971468	  0.282158	  0.215586	  0.107964	
2.051	  0.000000	  0.000000	  0.025590	  0.286234	  0.171727	  0.445118	  0.062333	  0.071064	  0.504767	  0.309385	  0.387132	  0.042565	  0.967449	  0.280356	  0.214964	  0.107570	
2.0515	  0.000000	  0.000000	  0.025711	  0.289021	  0.172923	  0.449763	  0.063175	  0.070242	  0.499108	  0.304323	  0.388256	  0.040751	  0.963200	  0.278536	  0.214326	  0.107184	
2.052	  0.000000	  0.000000	  0.025862	  0.291782	  0.174205	  0.454385	  0.064016	  0.069449	  0.493438	  0.299298	  0.389348	  0.038992	  0.958728	  0.276698	  0.213672	  0.106807	
2.0525	  0.000000	  0.000000	  0.026042	  0.294517	  0.175573	  0.458987	  0.064857	  0.068686	  0.487760	  0.294310	  0.390409	  0.037289	  0.954039	  0.274843	  0.213002	  0.106436	
2.053	  0.000000	  0.000000	  0.026251	  0.297225	  0.177029	  0.463566	  0.065696	  0.067951	  0.482076	  0.289358	  0.391440	  0.035640	  0.949139	  0.272974	  0.212316	  0.106072	
2.0535	  0.000000	  0.000000	  0.026489	  0.299905	  0.178573	  0.468124	  0.066534	  0.067244	  0.476388	  0.284446	  0.392441	  0.034044	  0.944035	  0.271091	  0.211614	  0.105713	
2.054	  0.000000	  0.000000	  0.026757	  0.302557	  0.180207	  0.472660	  0.067369	  0.066565	  0.470698	  0.279572	  0.393412	  0.032501	  0.938734	  0.269196	  0.210896	  0.105359	
2.0545	  0.000000	  0.000000	  0.027054	  0.305180	  0.181932	  0.477173	  0.068201	  0.065914	  0.465009	  0.274739	  0.394354	  0.031011	  0.933241	  0.267290	  0.210162	  0.105008	
2.055	  0.000000	  0.000000	  0.027380	  0.307774	  0.183749	  0.481664	  0.069030	  0.065289	  0.459322	  0.269946	  0.395268	  0.029572	  0.927563	  0.265374	  0.209411	  0.104660	
2.0555	  0.000000	  0.000000	  0.027735	  0.310339	  0.185658	  0.486132	  0.069855	  0.064690	  0.453640	  0.265196	  0.396153	  0.028183	  0.921707	  0.263451	  0.208644	  0.104315	
2.056	  0.000000	  0.000000	  0.028120	  0.312874	  0.187660	  0.490576	  0.070675	  0.064116	  0.447962	  0.260487	  0.397012	  0.026844	  0.915678	  0.261520	  0.207860	  0.103971	
2.0565	  0.000000	  0.000000	  0.028533	  0.315379	  0.189757	  0.494996	  0.071491	  0.063568	  0.442292	  0.255822	  0.397843	  0.025554	  0.909483	  0.259584	  0.207060	  0.103628	
2.057	  0.000000	  0.000000	  0.028976	  0.317852	  0.191948	  0.499393	  0.072300	  0.063045	  0.436631	  0.251201	  0.398648	  0.024312	  0.903127	  0.257643	  0.206243	  0.103284	
2.0575	  0.000000	  0.000000	  0.029448	  0.320295	  0.194235	  0.503766	  0.073104	  0.062546	  0.430980	  0.246625	  0.399426	  0.023117	  0.896617	  0.255698	  0.205410	  0.102941	
2.058	  0.000000	  0.000000	  0.029949	  0.322707	  0.196618	  0.508114	  0.073902	  0.062071	  0.425340	  0.242093	  0.400178	  0.021969	  0.889958	  0.253751	  0.204561	  0.102595	
2.0585	  0.000000	  0.000000	  0.030479	  0.325086	  0.199097	  0.512438	  0.074693	  0.061620	  0.419712	  0.237608	  0.400905	  0.020867	  0.883156	  0.251803	  0.203695	  0.102248	
2.059	  0.000000	  0.000000	  0.031038	  0.327433	  0.201674	  0.516737	  0.075476	  0.061191	  0.414099	  0.233169	  0.401606	  0.019810	  0.876217	  0.249854	  0.202814	  0.101898	
2.0595	  0.000000	  0.000000	  0.031627	  0.329747	  0.204348	  0.521013	  0.076253	  0.060785	  0.408501	  0.228777	  0.402283	  0.018797	  0.869146	  0.247905	  0.201916	  0.101545	
2.06	  0.000000	  0.000000	  0.032245	  0.332028	  0.207120	  0.525263	  0.077021	  0.060402	  0.402921	  0.224433	  0.402938	  0.017827	  0.861949	  0.245958	  0.201003	  0.101188	
2.0605	  0.000000	  0.000000	  0.032892	  0.334276	  0.209991	  0.529489	  0.077782	  0.060039	  0.397358	  0.220137	  0.403571	  0.016900	  0.854632	  0.244013	  0.200073	  0.100827	
2.061	  0.000000	  0.000000	  0.033568	  0.336491	  0.212960	  0.533690	  0.078535	  0.059699	  0.391815	  0.215890	  0.404183	  0.016015	  0.847201	  0.242071	  0.199128	  0.100461	
2.0615	  0.000000	  0.000000	  0.034274	  0.338672	  0.216029	  0.537866	  0.079280	  0.059379	  0.386293	  0.211692	  0.404777	  0.015171	  0.839661	  0.240133	  0.198166	  0.100090	
2.062	  0.000000	  0.000000	  0.035008	  0.340822	  0.219196	  0.542016	  0.080016	  0.059080	  0.380793	  0.207545	  0.405352	  0.014368	  0.832019	  0.238200	  0.197189	  0.099713	
2.0625	  0.000000	  0.000000	  0.035772	  0.342940	  0.222463	  0.546141	  0.080744	  0.058801	  0.375316	  0.203448	  0.405910	  0.013604	  0.824281	  0.236273	  0.196196	  0.099331	
2.063	  0.000000	  0.000000	  0.036566	  0.345027	  0.225830	  0.550240	  0.081462	  0.058541	  0.369864	  0.199402	  0.406453	  0.012879	  0.816452	  0.234353	  0.195186	  0.098944	
2.0635	  0.000000	  0.000000	  0.037388	  0.347083	  0.229297	  0.554313	  0.082172	  0.058301	  0.364439	  0.195408	  0.406982	  0.012192	  0.808538	  0.232439	  0.194162	  0.098550	
2.064	  0.000000	  0.000000	  0.038239	  0.349110	  0.232864	  0.558358	  0.082872	  0.058080	  0.359040	  0.191466	  0.407498	  0.011542	  0.800545	  0.230534	  0.193123	  0.098150	
2.0645	  0.000000	  0.000000	  0.039120	  0.351108	  0.236531	  0.562377	  0.083563	  0.057878	  0.353670	  0.187576	  0.408004	  0.010929	  0.792479	  0.228638	  0.192069	  0.097743	
2.065	  0.000000	  0.000000	  0.040030	  0.353078	  0.240297	  0.566367	  0.084245	  0.057694	  0.348329	  0.183738	  0.408500	  0.010352	  0.784346	  0.226751	  0.191000	  0.097330	
2.0655	  0.000000	  0.000000	  0.040969	  0.355021	  0.244163	  0.570330	  0.084917	  0.057527	  0.343019	  0.179953	  0.408989	  0.009810	  0.776150	  0.224875	  0.189919	  0.096910	
2.066	  0.000000	  0.000000	  0.041936	  0.356939	  0.248129	  0.574263	  0.085579	  0.057378	  0.337740	  0.176221	  0.409471	  0.009303	  0.767897	  0.223010	  0.188824	  0.096483	
2.0665	  0.000000	  0.000000	  0.042933	  0.358831	  0.252194	  0.578166	  0.086231	  0.057246	  0.332493	  0.172542	  0.409949	  0.008829	  0.759591	  0.221156	  0.187716	  0.096049	
2.067	  0.000000	  0.000000	  0.043958	  0.360699	  0.256359	  0.582038	  0.086874	  0.057131	  0.327280	  0.168917	  0.410424	  0.008389	  0.751239	  0.219316	  0.186597	  0.095609	
2.0675	  0.000000	  0.000000	  0.045013	  0.362543	  0.260622	  0.585878	  0.087506	  0.057032	  0.322100	  0.165345	  0.410898	  0.007981	  0.742843	  0.217489	  0.185465	  0.095161	
2.068	  0.000000	  0.000000	  0.046096	  0.364365	  0.264983	  0.589685	  0.088129	  0.056950	  0.316954	  0.161827	  0.411370	  0.007605	  0.734411	  0.215675	  0.184323	  0.094706	
2.0685	  0.000000	  0.000000	  0.047208	  0.366166	  0.269442	  0.593457	  0.088742	  0.056883	  0.311843	  0.158362	  0.411844	  0.007260	  0.725945	  0.213877	  0.183169	  0.094246	
2.069	  0.000000	  0.000000	  0.048348	  0.367945	  0.273998	  0.597192	  0.089345	  0.056832	  0.306768	  0.154952	  0.412319	  0.006945	  0.717452	  0.212094	  0.182006	  0.093779	
2.0695	  0.000000	  0.000000	  0.049517	  0.369703	  0.278650	  0.600889	  0.089938	  0.056796	  0.301728	  0.151596	  0.412796	  0.006661	  0.708934	  0.210327	  0.180832	  0.093306	
2.07	  0.000000	  0.000000	  0.050714	  0.371442	  0.283398	  0.604546	  0.090521	  0.056775	  0.296724	  0.148293	  0.413278	  0.006405	  0.700398	  0.208577	  0.179649	  0.092828	
2.0705	  0.000000	  0.000000	  0.051940	  0.373161	  0.288241	  0.608162	  0.091094	  0.056769	  0.291757	  0.145045	  0.413764	  0.006178	  0.691847	  0.206843	  0.178456	  0.092345	
2.071	  0.000000	  0.000000	  0.053194	  0.374862	  0.293178	  0.611735	  0.091657	  0.056776	  0.286826	  0.141852	  0.414256	  0.005978	  0.683286	  0.205127	  0.177256	  0.091857	
2.0715	  0.000000	  0.000000	  0.054476	  0.376544	  0.298208	  0.615262	  0.092210	  0.056798	  0.281932	  0.138712	  0.414755	  0.005806	  0.674719	  0.203428	  0.176047	  0.091365	
2.072	  0.000000	  0.000000	  0.055786	  0.378209	  0.303329	  0.618743	  0.092753	  0.056832	  0.277075	  0.135626	  0.415261	  0.005661	  0.666150	  0.201747	  0.174831	  0.090869	
2.0725	  0.000000	  0.000000	  0.057125	  0.379856	  0.308541	  0.622175	  0.093286	  0.056880	  0.272255	  0.132595	  0.415775	  0.005541	  0.657583	  0.200084	  0.173609	  0.090370	
2.073	  0.000000	  0.000000	  0.058491	  0.381486	  0.313842	  0.625556	  0.093810	  0.056941	  0.267474	  0.129617	  0.416298	  0.005447	  0.649023	  0.198440	  0.172380	  0.089867	
2.0735	  0.000000	  0.000000	  0.059886	  0.383100	  0.319231	  0.628883	  0.094324	  0.057014	  0.262730	  0.126693	  0.416829	  0.005377	  0.640472	  0.196814	  0.171146	  0.089361	
2.074	  0.000000	  0.000000	  0.061308	  0.384699	  0.324707	  0.632155	  0.094829	  0.057098	  0.258026	  0.123822	  0.417370	  0.005332	  0.631935	  0.195207	  0.169907	  0.088853	
